<?xml version="1.0" standalone="no"?>
<!DOCTYPE svg PUBLIC "-//W3C//DTD SVG 20010904//EN"
 "http://www.w3.org/TR/2001/REC-SVG-20010904/DTD/svg10.dtd">
<svg version="1.0" xmlns="http://www.w3.org/2000/svg"
 width="500.000000pt" height="500.000000pt" viewBox="0 0 500.000000 500.000000"
 preserveAspectRatio="xMidYMid meet">

<g transform="translate(0.000000,500.000000) scale(0.100000,-0.100000)"
fill="#fff" stroke="none">
<path d="M1005 4476 c-60 -28 -87 -56 -114 -116 -20 -45 -21 -56 -21 -1731 l0
-1687 183 -7 c253 -9 3243 -2 3254 8 4 5 8 768 8 1695 0 1636 -1 1688 -19
1725 -22 45 -66 91 -110 115 -29 16 -136 17 -1581 19 l-1550 3 -50 -24z m3093
-373 l2 -173 -1505 0 -1505 0 0 175 0 175 1503 -2 1502 -3 3 -172z m-8 -1673
l0 -1280 -1497 2 -1498 3 -3 1278 -2 1277 1500 0 1500 0 0 -1280z"/>
<path d="M3175 4239 c-43 -13 -65 -46 -65 -102 0 -40 5 -53 29 -78 41 -41 107
-41 152 -1 26 23 31 35 31 74 0 59 -24 95 -71 108 -41 11 -36 11 -76 -1z"/>
<path d="M3494 4236 c-70 -31 -87 -119 -35 -175 24 -26 36 -31 76 -31 57 0 80
12 100 50 33 64 11 130 -51 156 -41 17 -50 17 -90 0z"/>
<path d="M3825 4240 c-43 -14 -65 -47 -65 -103 0 -40 5 -53 29 -78 57 -57 169
-27 184 50 8 40 -10 99 -36 115 -31 20 -77 26 -112 16z"/>
<path d="M2556 3499 l-26 -31 0 -344 0 -345 -37 8 c-21 4 -92 8 -158 7 -104 0
-130 -4 -200 -28 -173 -60 -303 -172 -380 -329 -60 -122 -78 -199 -78 -322 1
-270 143 -496 388 -616 196 -96 430 -89 623 18 118 65 252 211 252 274 0 43
-35 79 -78 79 -32 0 -44 -8 -107 -75 -115 -122 -212 -173 -360 -189 -77 -9
-182 12 -262 53 -262 132 -359 495 -199 745 114 179 351 266 559 206 l37 -11
0 -170 0 -171 29 -29 c40 -39 82 -39 122 0 l29 29 0 144 c0 99 4 148 12 156 8
8 60 12 170 12 86 0 181 5 210 11 168 35 310 161 359 320 24 76 25 205 3 280
-47 160 -181 293 -339 334 -45 11 -116 15 -301 15 l-242 0 -26 -31z m564 -160
c66 -31 120 -84 152 -148 19 -39 23 -61 23 -146 0 -113 -16 -155 -80 -220 -74
-73 -98 -80 -312 -83 l-193 -4 0 317 0 317 178 -4 c166 -3 180 -5 232 -29z"/>
</g>
</svg>
